<?xml version="1.0" encoding="UTF-8" standalone="no"?>
<!DOCTYPE svg PUBLIC "-//W3C//DTD SVG 1.1//EN"
 "http://www.w3.org/Graphics/SVG/1.1/DTD/svg11.dtd">
<!-- Generated by graphviz version 2.26.3 (20100126.1600)
 -->
<!-- Title: G Pages: 1 -->
<svg width="694pt" height="334pt"
 viewBox="0.00 0.00 694.00 334.00" xmlns="http://www.w3.org/2000/svg" xmlns:xlink="http://www.w3.org/1999/xlink">
<g id="graph1" class="graph" transform="scale(1 1) rotate(0) translate(4 330)">
<title>G</title>
<polygon fill="white" stroke="white" points="-4,5 -4,-330 691,-330 691,5 -4,5"/>
<g id="graph2" class="cluster"><title>cluster_Global</title>
<polyline fill="none" stroke="gray" points="20,-44 666,-44 "/>
<path fill="none" stroke="gray" d="M666,-44C672,-44 678,-50 678,-56"/>
<polyline fill="none" stroke="gray" points="678,-56 678,-306 "/>
<path fill="none" stroke="gray" d="M678,-306C678,-312 672,-318 666,-318"/>
<polyline fill="none" stroke="gray" points="666,-318 20,-318 "/>
<path fill="none" stroke="gray" d="M20,-318C14,-318 8,-312 8,-306"/>
<polyline fill="none" stroke="gray" points="8,-306 8,-56 "/>
<path fill="none" stroke="gray" d="M8,-56C8,-50 14,-44 20,-44"/>
<text text-anchor="middle" x="343" y="-304.1" font-family="Times Roman,serif" font-size="11.00" fill="gray">Global</text>
</g>
<g id="graph3" class="cluster"><title>cluster_\Espalda</title>
<polyline fill="none" stroke="gray" points="28,-52 658,-52 "/>
<path fill="none" stroke="gray" d="M658,-52C664,-52 670,-58 670,-64"/>
<polyline fill="none" stroke="gray" points="670,-64 670,-276 "/>
<path fill="none" stroke="gray" d="M670,-276C670,-282 664,-288 658,-288"/>
<polyline fill="none" stroke="gray" points="658,-288 28,-288 "/>
<path fill="none" stroke="gray" d="M28,-288C22,-288 16,-282 16,-276"/>
<polyline fill="none" stroke="gray" points="16,-276 16,-64 "/>
<path fill="none" stroke="gray" d="M16,-64C16,-58 22,-52 28,-52"/>
<text text-anchor="middle" x="343" y="-274.1" font-family="Times Roman,serif" font-size="11.00" fill="gray">Espalda</text>
</g>
<!-- \\Espalda\\EspaldaReplace -->
<g id="node3" class="node"><title>\\Espalda\\EspaldaReplace</title>
<polygon fill="none" stroke="black" points="655,-258 555,-258 555,-222 655,-222 655,-258"/>
<text text-anchor="middle" x="605" y="-237.1" font-family="Times Roman,serif" font-size="11.00">EspaldaReplace</text>
</g>
<!-- \\Espalda\\EspaldaParser -->
<g id="node4" class="node"><title>\\Espalda\\EspaldaParser</title>
<polygon fill="none" stroke="black" points="278,-177 184,-177 184,-141 278,-141 278,-177"/>
<text text-anchor="start" x="201" y="-164.433" font-family="Times Roman,serif" font-size="11.00">«abstract»</text>
<text text-anchor="start" x="192.5" y="-151.233" font-family="Times Roman,serif" font-size="11.00">EspaldaParser</text>
</g>
<!-- \\Espalda\\EspaldaRules -->
<g id="node5" class="node"><title>\\Espalda\\EspaldaRules</title>
<polygon fill="none" stroke="black" points="112,-177 24,-177 24,-141 112,-141 112,-177"/>
<text text-anchor="start" x="38" y="-164.433" font-family="Times Roman,serif" font-size="11.00">«abstract»</text>
<text text-anchor="start" x="32.5" y="-151.233" font-family="Times Roman,serif" font-size="11.00">EspaldaRules</text>
</g>
<!-- \\Espalda\\EspaldaParser&#45;&gt;\\Espalda\\EspaldaRules -->
<g id="edge4" class="edge"><title>\\Espalda\\EspaldaParser&#45;&gt;\\Espalda\\EspaldaRules</title>
<path fill="none" stroke="black" d="M183.854,-159C164.638,-159 142.303,-159 122.401,-159"/>
<polygon fill="none" stroke="black" points="122.245,-155.5 112.244,-159 122.244,-162.5 122.245,-155.5"/>
</g>
<!-- \\Espalda\\Espalda -->
<g id="node6" class="node"><title>\\Espalda\\Espalda</title>
<polygon fill="none" stroke="black" points="634,-204 576,-204 576,-168 634,-168 634,-204"/>
<text text-anchor="middle" x="605" y="-183.1" font-family="Times Roman,serif" font-size="11.00">Espalda</text>
</g>
<!-- \\Espalda\\EspaldaDisplay -->
<g id="node7" class="node"><title>\\Espalda\\EspaldaDisplay</title>
<polygon fill="none" stroke="black" points="461,-204 365,-204 365,-168 461,-168 461,-204"/>
<text text-anchor="middle" x="413" y="-183.1" font-family="Times Roman,serif" font-size="11.00">EspaldaDisplay</text>
</g>
<!-- \\Espalda\\Espalda&#45;&gt;\\Espalda\\EspaldaDisplay -->
<g id="edge6" class="edge"><title>\\Espalda\\Espalda&#45;&gt;\\Espalda\\EspaldaDisplay</title>
<path fill="none" stroke="black" d="M575.421,-186C547.966,-186 506.295,-186 472.037,-186"/>
<polygon fill="none" stroke="black" points="471.667,-182.5 461.667,-186 471.667,-189.5 471.667,-182.5"/>
</g>
<!-- \\Espalda\\EspaldaDisplay&#45;&gt;\\Espalda\\EspaldaParser -->
<g id="edge8" class="edge"><title>\\Espalda\\EspaldaDisplay&#45;&gt;\\Espalda\\EspaldaParser</title>
<path fill="none" stroke="black" d="M364.227,-178.764C340.826,-175.293 312.637,-171.111 288.226,-167.49"/>
<polygon fill="none" stroke="black" points="288.426,-163.981 278.021,-165.976 287.399,-170.905 288.426,-163.981"/>
</g>
<!-- \\Espalda\\EspaldaException -->
<g id="node8" class="node"><title>\\Espalda\\EspaldaException</title>
<polygon fill="none" stroke="black" points="661,-150 549,-150 549,-114 661,-114 661,-150"/>
<text text-anchor="middle" x="605" y="-129.1" font-family="Times Roman,serif" font-size="11.00">EspaldaException</text>
</g>
<!-- \\Exception -->
<g id="node15" class="node"><title>\\Exception</title>
<ellipse fill="none" stroke="black" cx="413" cy="-18" rx="62.9325" ry="18.3848"/>
<text text-anchor="middle" x="413" y="-14.4" font-family="Times Roman,serif" font-size="14.00" fill="gray">\Exception</text>
</g>
<!-- \\Espalda\\EspaldaException&#45;&gt;\\Exception -->
<g id="edge10" class="edge"><title>\\Espalda\\EspaldaException&#45;&gt;\\Exception</title>
<path fill="none" stroke="black" d="M563.92,-113.927C558.462,-111.126 553.022,-108.121 548,-105 513.334,-83.4585 510.644,-69.577 476,-48 470.127,-44.3425 463.74,-40.8238 457.359,-37.5641"/>
<polygon fill="none" stroke="black" points="458.593,-34.2704 448.076,-32.9875 455.498,-40.5488 458.593,-34.2704"/>
</g>
<!-- \\Espalda\\EspaldaScope -->
<g id="node9" class="node"><title>\\Espalda\\EspaldaScope</title>
<polygon fill="none" stroke="black" points="651,-96 559,-96 559,-60 651,-60 651,-96"/>
<text text-anchor="middle" x="605" y="-75.1" font-family="Times Roman,serif" font-size="11.00">EspaldaScope</text>
</g>
<!-- \\Espalda\\EspaldaLoop -->
<g id="node10" class="node"><title>\\Espalda\\EspaldaLoop</title>
<polygon fill="none" stroke="black" points="455,-150 371,-150 371,-114 455,-114 455,-150"/>
<text text-anchor="middle" x="413" y="-129.1" font-family="Times Roman,serif" font-size="11.00">EspaldaLoop</text>
</g>
<!-- \\Espalda\\EspaldaLoop&#45;&gt;\\Espalda\\EspaldaParser -->
<g id="edge12" class="edge"><title>\\Espalda\\EspaldaLoop&#45;&gt;\\Espalda\\EspaldaParser</title>
<path fill="none" stroke="black" d="M370.329,-138.33C345.827,-141.965 314.74,-146.577 288.149,-150.522"/>
<polygon fill="none" stroke="black" points="287.58,-147.068 278.202,-151.998 288.607,-153.992 287.58,-147.068"/>
</g>
</g>
</svg>
