<?xml version="1.0" encoding="UTF-8" standalone="no"?>
<!DOCTYPE svg PUBLIC "-//W3C//DTD SVG 1.1//EN"
 "http://www.w3.org/Graphics/SVG/1.1/DTD/svg11.dtd">
<!-- Generated by graphviz version 2.36.0 (20140111.2315)
 -->
<!-- Title: G Pages: 1 -->
<svg width="718pt" height="330pt"
 viewBox="0.00 0.00 718.00 330.00" xmlns="http://www.w3.org/2000/svg" xmlns:xlink="http://www.w3.org/1999/xlink">
<g id="graph0" class="graph" transform="scale(1 1) rotate(0) translate(4 326)">
<title>G</title>
<polygon fill="white" stroke="none" points="-4,4 -4,-326 714,-326 714,4 -4,4"/>
<g id="clust1" class="cluster"><title>cluster_Global</title>
<path fill="none" stroke="gray" d="M20,-44C20,-44 690,-44 690,-44 696,-44 702,-50 702,-56 702,-56 702,-302 702,-302 702,-308 696,-314 690,-314 690,-314 20,-314 20,-314 14,-314 8,-308 8,-302 8,-302 8,-56 8,-56 8,-50 14,-44 20,-44"/>
<text text-anchor="middle" x="355" y="-301.2" font-family="Times,serif" font-size="11.00" fill="gray">Global</text>
</g>
<g id="clust2" class="cluster"><title>cluster_\Espalda</title>
<path fill="none" stroke="gray" d="M28,-52C28,-52 682,-52 682,-52 688,-52 694,-58 694,-64 694,-64 694,-274 694,-274 694,-280 688,-286 682,-286 682,-286 28,-286 28,-286 22,-286 16,-280 16,-274 16,-274 16,-64 16,-64 16,-58 22,-52 28,-52"/>
<text text-anchor="middle" x="355" y="-273.2" font-family="Times,serif" font-size="11.00" fill="gray">Espalda</text>
</g>
<!-- \\Espalda\\Espalda -->
<g id="node1" class="node"><title>\\Espalda\\Espalda</title>
<polygon fill="none" stroke="black" points="656.5,-258 591.5,-258 591.5,-222 656.5,-222 656.5,-258"/>
<text text-anchor="middle" x="624" y="-237.2" font-family="Times,serif" font-size="11.00">Espalda</text>
</g>
<!-- \\Espalda\\EspaldaDisplay -->
<g id="node2" class="node"><title>\\Espalda\\EspaldaDisplay</title>
<polygon fill="none" stroke="black" points="483,-258 375,-258 375,-222 483,-222 483,-258"/>
<text text-anchor="middle" x="429" y="-237.2" font-family="Times,serif" font-size="11.00">EspaldaDisplay</text>
</g>
<!-- \\Espalda\\Espalda&#45;&gt;\\Espalda\\EspaldaDisplay -->
<g id="edge1" class="edge"><title>\\Espalda\\Espalda&#45;&gt;\\Espalda\\EspaldaDisplay</title>
<path fill="none" stroke="black" d="M591.13,-240C564.659,-240 526.18,-240 493.463,-240"/>
<polygon fill="none" stroke="black" points="493.065,-236.5 483.065,-240 493.065,-243.5 493.065,-236.5"/>
</g>
<!-- \\Espalda\\EspaldaParser -->
<g id="node5" class="node"><title>\\Espalda\\EspaldaParser</title>
<polygon fill="none" stroke="black" points="296,-231 194,-231 194,-195 296,-195 296,-231"/>
<text text-anchor="start" x="213" y="-216.2" font-family="Times,serif" font-size="11.00">«abstract»</text>
<text text-anchor="start" x="202" y="-204.2" font-family="Times,serif" font-size="11.00">EspaldaParser</text>
</g>
<!-- \\Espalda\\EspaldaDisplay&#45;&gt;\\Espalda\\EspaldaParser -->
<g id="edge2" class="edge"><title>\\Espalda\\EspaldaDisplay&#45;&gt;\\Espalda\\EspaldaParser</title>
<path fill="none" stroke="black" d="M374.869,-232.118C353.305,-228.919 328.288,-225.208 306.065,-221.911"/>
<polygon fill="none" stroke="black" points="306.479,-218.434 296.074,-220.429 305.452,-225.358 306.479,-218.434"/>
</g>
<!-- \\Espalda\\EspaldaException -->
<g id="node3" class="node"><title>\\Espalda\\EspaldaException</title>
<polygon fill="none" stroke="black" points="685.5,-204 562.5,-204 562.5,-168 685.5,-168 685.5,-204"/>
<text text-anchor="middle" x="624" y="-183.2" font-family="Times,serif" font-size="11.00">EspaldaException</text>
</g>
<!-- \\Exception -->
<g id="node9" class="node"><title>\\Exception</title>
<ellipse fill="none" stroke="black" cx="429" cy="-18" rx="60.3893" ry="18"/>
<text text-anchor="middle" x="429" y="-14.3" font-family="Times,serif" font-size="14.00" fill="gray">\Exception</text>
</g>
<!-- \\Espalda\\EspaldaException&#45;&gt;\\Exception -->
<g id="edge3" class="edge"><title>\\Espalda\\EspaldaException&#45;&gt;\\Exception</title>
<path fill="none" stroke="black" d="M574.764,-167.921C570.224,-165.274 565.878,-162.306 562,-159 517.255,-120.847 533.838,-87.1924 490,-48 485.55,-44.0219 480.478,-40.4342 475.21,-37.2401"/>
<polygon fill="none" stroke="black" points="476.674,-34.0492 466.235,-32.2367 473.265,-40.1632 476.674,-34.0492"/>
</g>
<!-- \\Espalda\\EspaldaLoop -->
<g id="node4" class="node"><title>\\Espalda\\EspaldaLoop</title>
<polygon fill="none" stroke="black" points="476.5,-204 381.5,-204 381.5,-168 476.5,-168 476.5,-204"/>
<text text-anchor="middle" x="429" y="-183.2" font-family="Times,serif" font-size="11.00">EspaldaLoop</text>
</g>
<!-- \\Espalda\\EspaldaLoop&#45;&gt;\\Espalda\\EspaldaParser -->
<g id="edge4" class="edge"><title>\\Espalda\\EspaldaLoop&#45;&gt;\\Espalda\\EspaldaParser</title>
<path fill="none" stroke="black" d="M381.13,-192.953C358.368,-196.33 330.744,-200.428 306.419,-204.037"/>
<polygon fill="none" stroke="black" points="305.598,-200.62 296.22,-205.55 306.625,-207.544 305.598,-200.62"/>
</g>
<!-- \\Espalda\\EspaldaRules -->
<g id="node7" class="node"><title>\\Espalda\\EspaldaRules</title>
<polygon fill="none" stroke="black" points="121.5,-231 24.5,-231 24.5,-195 121.5,-195 121.5,-231"/>
<text text-anchor="start" x="41" y="-216.2" font-family="Times,serif" font-size="11.00">«abstract»</text>
<text text-anchor="start" x="32.5" y="-204.2" font-family="Times,serif" font-size="11.00">EspaldaRules</text>
</g>
<!-- \\Espalda\\EspaldaParser&#45;&gt;\\Espalda\\EspaldaRules -->
<g id="edge5" class="edge"><title>\\Espalda\\EspaldaParser&#45;&gt;\\Espalda\\EspaldaRules</title>
<path fill="none" stroke="black" d="M193.914,-213C174.392,-213 151.896,-213 131.7,-213"/>
<polygon fill="none" stroke="black" points="131.687,-209.5 121.687,-213 131.687,-216.5 131.687,-209.5"/>
</g>
<!-- \\Espalda\\EspaldaReplace -->
<g id="node6" class="node"><title>\\Espalda\\EspaldaReplace</title>
<polygon fill="none" stroke="black" points="680,-150 568,-150 568,-114 680,-114 680,-150"/>
<text text-anchor="middle" x="624" y="-129.2" font-family="Times,serif" font-size="11.00">EspaldaReplace</text>
</g>
<!-- \\Espalda\\EspaldaScope -->
<g id="node8" class="node"><title>\\Espalda\\EspaldaScope</title>
<polygon fill="none" stroke="black" points="674.5,-96 573.5,-96 573.5,-60 674.5,-60 674.5,-96"/>
<text text-anchor="middle" x="624" y="-75.2" font-family="Times,serif" font-size="11.00">EspaldaScope</text>
</g>
</g>
</svg>
